<svg width="143" height="45" viewBox="0 0 143 45" fill="none" xmlns="http://www.w3.org/2000/svg">
<path d="M7.29631 25.3279C5.37728 25.3279 4.07734 24.2455 4.07734 20.9654C4.07734 17.6853 5.57286 16.6028 7.26396 16.6028C9.08593 16.6028 10.3226 17.6853 10.3226 20.9001C10.3226 24.2781 8.95652 25.3279 7.29778 25.3279H7.29631ZM54.1941 16.803C50.9046 16.803 50.1958 19.9897 50.1958 23.5337C50.1958 27.0777 50.9369 30.558 54.2912 30.558C57.6454 30.558 58.2895 27.3713 58.2895 23.7621C58.2895 20.1528 57.5793 16.803 54.1941 16.803ZM54.3559 15.2431C59.2895 15.2431 61.6438 18.6892 61.6438 23.6316C61.6438 28.5739 58.8704 32.1179 54.1633 32.1179C49.4561 32.1179 46.8445 28.7029 46.8445 23.7606C46.8445 18.8182 49.7473 15.2416 54.3574 15.2416L54.3559 15.2431ZM40.1757 27.3061V24.6073H38.3699C35.4362 24.6073 34.4686 25.8425 34.4686 27.7613C34.4686 29.3865 35.0494 30.3296 36.7582 30.3296C38.3713 30.3296 40.1771 29.2887 40.1771 27.3046L40.1757 27.3061ZM36.7891 11.4381C36.0803 11.1459 35.4994 10.9176 34.8862 10.9176C34.3392 10.9176 33.823 11.1771 33.3392 12.3485L32.404 12.0564C32.9848 10.0738 33.9186 8.90237 35.7906 8.90237C36.9832 8.90237 37.6287 9.25974 38.5625 9.64973C39.2081 9.91071 39.8198 10.1376 40.4654 10.1376C41.2065 10.1376 41.5947 9.84547 42.0462 8.73926L42.9491 9.00024C42.305 11.3743 41.0462 12.1869 39.6595 12.1869C38.5316 12.1869 37.6287 11.7969 36.7905 11.4395L36.7891 11.4381ZM40.1757 23.2416V21.0306C40.1757 18.2014 39.4978 16.6088 36.9508 16.6088C35.9832 16.6088 34.2421 16.7393 34.2421 17.9745C34.2421 18.105 34.2745 18.234 34.3068 18.3971H35.3715C35.4685 18.7886 35.5656 19.2097 35.5656 19.5685C35.5656 20.6733 34.7921 21.2916 33.7274 21.2916C32.5657 21.2916 31.8569 20.5769 31.8569 19.2764C31.8569 16.9024 34.2436 15.2445 37.4361 15.2445C41.4668 15.2445 43.2402 16.8371 43.2402 21.3895V28.8038C43.2402 30.2021 43.4667 30.6232 44.2402 30.6232C44.5961 30.6232 44.9181 30.558 45.3048 30.429L45.596 31.5352C45.049 31.8288 44.2093 32.0883 43.2417 32.0883C41.5653 32.0883 40.5977 31.4699 40.3389 29.7795C39.3389 31.2757 37.5978 32.1209 35.5994 32.1209C33.1172 32.1209 31.0849 31.0147 31.0849 27.9585C31.0849 24.4145 33.9554 23.2431 37.9537 23.2431H40.1786L40.1757 23.2416ZM25.5396 30.4601V31.7606H16.8988V30.4601L18.9943 30.2318V17.1619L16.8988 16.9335V15.6657L21.5412 15.4714L21.7662 18.3007H21.8942C22.8294 16.6102 24.1529 15.2445 26.5381 15.2445C28.3115 15.2445 29.8276 16.3181 29.8276 18.2681C29.8276 20.0253 28.9247 20.8052 27.5704 20.8052C26.216 20.8052 25.4749 19.9912 25.5072 18.5928L26.5395 18.1702C26.5719 18.0397 26.6042 17.9092 26.6042 17.7802C26.6042 17.1945 26.119 17.0002 25.5396 17.0002C23.8308 17.0002 22.0574 19.2438 22.0574 21.13V30.2347L25.5396 30.4631V30.4601ZM7.85069 32.3478C10.8756 32.3478 12.5019 32.5435 12.5019 34.3155C12.5019 36.4153 10.6153 37.0707 7.42718 37.0707C3.32884 37.0707 2.58182 36.1187 2.58182 34.578C2.58182 33.6601 2.93916 32.9706 3.39502 32.3478H7.85216H7.85069ZM15.9665 12.9728C15.9533 11.3194 14.7827 10.4846 14.3695 10.2547C14.0048 10.0516 12.9299 9.67494 11.7593 10.7989C10.7756 11.742 11.1755 12.9239 11.6329 13.5289C11.9196 13.4681 12.7328 13.2961 12.7328 13.2961C12.7328 13.2961 12.9725 13.6297 12.8166 14.0419C12.6078 14.5965 11.3417 15.6849 10.8888 16.0216C10.8623 16.0408 10.8358 16.0586 10.8079 16.0794C9.99618 15.5218 8.79183 15.1615 7.32866 15.1615C3.03474 15.1615 0.921601 18.0798 0.921601 21.3272C0.921601 23.59 1.99508 25.5252 4.04352 26.2473C2.45094 27.6249 1.14953 28.5443 1.14953 30.0197C1.14953 30.773 1.50687 31.461 2.28771 31.8229C1.18188 32.4783 0.0437012 33.365 0.0437012 35.2008C0.0437012 37.3331 1.70245 38.7433 6.64634 38.7433C12.8255 38.7433 14.8754 36.8408 14.8754 33.5608C14.8754 29.8551 12.0784 29.2976 8.33743 29.2976H5.28022C4.3685 29.2976 3.94646 29.2323 3.94646 28.6095C3.94646 28.1498 4.43467 27.6249 5.4758 26.6744C6.12577 26.8049 6.51693 26.8701 7.33013 26.8701C10.7123 26.8701 13.4122 24.7066 13.4122 20.9669C13.4122 19.0644 12.6637 17.884 11.7535 16.9661C12.4667 16.7734 13.1181 16.6844 14.2445 16.0749C15.1533 15.5841 15.9797 14.5268 15.9665 12.9728Z" fill="white"/>
<path d="M12.1109 14.9479C12.1109 14.9479 10.3066 12.3173 11.0124 10.4163C11.8109 8.26765 13.9564 6.89453 13.9564 6.89453C13.9564 6.89453 15.1269 9.82169 14.6828 11.4958C14.152 13.4962 12.1109 14.9479 12.1109 14.9479Z" fill="#8CC63F"/>
<path d="M76.999 21.1109V27.2543C76.205 28.4391 74.5947 29.2636 73.0757 29.2636C70.5199 29.2636 68.8024 27.2217 68.8024 24.1833C68.8024 21.145 70.5214 19.069 73.0757 19.069C74.558 19.069 76.205 19.9276 76.9976 21.1109H76.999ZM139.208 24.1507C139.208 26.6137 137.83 29.2636 134.808 29.2636C131.786 29.2636 130.441 26.6137 130.441 24.1507C130.441 20.6586 132.704 19.069 134.808 19.069C137.832 19.069 139.208 21.704 139.208 24.1507ZM140.702 18.3528C139.23 16.7602 137.192 15.9194 134.808 15.9194C130.17 15.9194 126.804 19.3819 126.804 24.1522C126.804 28.9226 130.17 32.4162 134.808 32.4162C137.193 32.4162 139.231 31.5724 140.702 29.9783C142.083 28.4807 142.845 26.4106 142.845 24.1522C142.845 21.8938 142.084 19.8475 140.702 18.3542V18.3528ZM125.12 28.7431C124.891 29.0026 124.3 29.2651 123.654 29.2651C122.794 29.2651 122.238 28.5904 122.238 27.5049V19.3537H125.413V16.4191H122.238V12.1515H118.799V16.4191H116.153V19.3537H118.799V28.3428C118.799 30.9704 120.219 32.4176 122.825 32.4176C124.251 32.4176 125.328 32.0736 126.035 31.3974L126.066 31.3648L125.21 28.6438L125.12 28.7446V28.7431ZM112.464 22.8206H103.93C104.132 20.9537 105.517 18.8466 108.195 18.8466C110.165 18.8466 112.328 20.153 112.464 22.8206ZM108.195 15.9194C103.686 15.9194 100.288 19.459 100.288 24.1522C100.288 28.8454 103.645 32.4162 108.451 32.4162C111.005 32.4162 113.249 31.6065 114.769 30.1385L114.816 30.094L113.193 27.7407L113.128 27.806C112.128 28.8143 110.39 29.5572 108.802 29.5572C106.637 29.5572 104.315 28.1559 103.964 25.4883H115.888V24.474C115.888 22.0555 115.144 19.8786 113.799 18.3468C112.405 16.7587 110.464 15.9194 108.195 15.9194ZM94.9894 18.4551V16.4191H91.2851V32.1581H94.9894V21.3704C95.5188 20.3161 97.4701 19.3611 98.8524 19.3611C99.2598 19.3611 99.6245 19.3922 99.9083 19.456L100.016 19.4768V15.8853H99.8833C98.0657 15.8853 96.3114 16.8847 94.9894 18.4551ZM85.9604 10.2134C84.7928 10.2134 83.8061 11.2084 83.8061 12.3858C83.8061 13.5631 84.7928 14.5567 85.9604 14.5567C87.128 14.5567 88.1132 13.5824 88.1132 12.3858C88.1132 11.1891 87.1471 10.2134 85.9604 10.2134ZM84.1428 32.1581H87.5824V16.4162H84.1428V32.1552V32.1581ZM77.0005 18.3231C75.677 16.7928 73.9948 15.9209 72.1184 15.9209C67.9627 15.9209 65.1687 19.2425 65.1687 24.1848C65.1687 29.1272 67.9627 32.4176 72.1199 32.4176C74.0006 32.4176 75.6785 31.5561 77.002 30.0451V32.1581H80.4415V10.2801H77.002V18.3201L77.0005 18.3231Z" fill="#8CC63F"/>
</svg>
